<svg width="810" height="600" viewBox="0 0 810 600" fill="none" xmlns="http://www.w3.org/2000/svg">
  <!-- Gradient Definition -->
  <defs>
    <linearGradient id="violetPink" x1="0%" y1="0%" x2="100%" y2="0%">
      <stop offset="0%" stop-color="#B148FF"/> <!-- violet -->
      <stop offset="100%" stop-color="#ff0080"/> <!-- pink -->
    </linearGradient>
  </defs>

  <!-- Main Shape with Gradient -->
<g transform="scale(1.5)" x="50%">
 


  <path d="M329.433 277.078L321.301 290.817C314.053 303.061 295.948 303.061 288.7 290.817L280.568 277.078C274.261 266.422 271.108 261.096 266.042 258.148C260.977 255.202 254.599 255.092 241.844 254.873C223.014 254.548 211.204 253.394 201.299 249.292C182.922 241.679 168.321 227.08 160.709 208.702C155 194.92 155 177.446 155 142.501V127.5C155 78.3988 155 53.848 166.052 35.8128C172.236 25.721 180.721 17.2363 190.813 11.052C208.848 0 233.399 0 282.5 0H327.501C376.602 0 401.152 0 419.188 11.052C429.281 17.2363 437.765 25.721 443.949 35.8128C455.001 53.848 455.001 78.3988 455.001 127.5V142.501C455.001 177.446 455.001 194.92 449.292 208.702C441.68 227.08 427.08 241.679 408.702 249.292C398.797 253.394 386.988 254.548 368.157 254.873C355.401 255.092 349.024 255.202 343.959 258.148C338.893 261.094 335.739 266.422 329.433 277.078Z" fill="url(#violetPink)"/>

  <!-- Eyes -->
  <circle cx="365.004" cy="135.002" r="15" fill="white"/>
  <circle cx="304.996" cy="135.002" r="15" fill="white"/>
  <circle cx="245.000" cy="135.002" r="15" fill="white"/>
</g>
  <!-- Editable Text -->
  <text x="50%" y="90%" text-anchor="middle"
        font-family="Arial, Helvetica, sans-serif"
        font-size="64"
        fill="white" >
    Zivo – Fast &amp; Secure Chat
  </text>
</svg>
